<svg width="14" height="14" viewBox="0 0 14 14" fill="none" xmlns="http://www.w3.org/2000/svg">
<path fill-rule="evenodd" clip-rule="evenodd" d="M6.99967 0.333252C3.31967 0.333252 0.333008 3.31992 0.333008 6.99992C0.333008 10.6799 3.31967 13.6666 6.99967 13.6666C10.6797 13.6666 13.6663 10.6799 13.6663 6.99992C13.6663 3.31992 10.6797 0.333252 6.99967 0.333252ZM5.66634 9.99992L9.66634 6.99992L5.66634 3.99992V9.99992ZM1.66634 6.99992C1.66634 9.93992 4.05967 12.3333 6.99967 12.3333C9.93967 12.3333 12.333 9.93992 12.333 6.99992C12.333 4.05992 9.93967 1.66659 6.99967 1.66659C4.05967 1.66659 1.66634 4.05992 1.66634 6.99992Z" fill="#505F79"/>
</svg>
