<svg width="16" height="16" viewBox="0 0 16 16" fill="none" xmlns="http://www.w3.org/2000/svg">
<path fill-rule="evenodd" clip-rule="evenodd" d="M8.00033 15.3334C3.95024 15.3334 0.666992 12.0502 0.666992 8.00008C0.666992 3.94999 3.95024 0.666748 8.00033 0.666748C12.0504 0.666748 15.3337 3.94999 15.3337 8.00008C15.3337 12.0502 12.0504 15.3334 8.00033 15.3334ZM8.00033 14.0001C11.314 14.0001 14.0003 11.3138 14.0003 8.00008C14.0003 4.68637 11.314 2.00008 8.00033 2.00008C4.68662 2.00008 2.00033 4.68637 2.00033 8.00008C2.00033 11.3138 4.68662 14.0001 8.00033 14.0001ZM7.80501 8.86201L6.27642 7.33341H9.33361C10.07 7.33341 10.6669 7.93036 10.6669 8.66674C10.6669 9.40312 10.07 10.0001 9.33361 10.0001V11.3334C10.8064 11.3334 12.0003 10.1395 12.0003 8.66674C12.0003 7.19398 10.8064 6.00008 9.33361 6.00008H6.27642L7.80501 4.47148L6.8622 3.52867L3.72413 6.66674L6.8622 9.80481L7.80501 8.86201Z" fill="#505F79"/>
</svg>
