<svg width="91" height="96" viewBox="0 0 91 96" fill="none" xmlns="http://www.w3.org/2000/svg">
<path d="M73.0958 12.3338C72.5739 11.8148 71.8589 11.5172 71.1141 11.5172C69.866 11.5172 37.6942 11.5172 34.6895 11.5172V11.1456C34.6895 4.99993 29.6617 0 23.4819 0C17.302 0 12.2743 4.99993 12.2743 11.1456V11.5172H3.68178C2.13439 11.5172 0.879883 12.7647 0.879883 14.3036V92.3231C0.879883 93.8619 2.13439 95.1095 3.68178 95.1095H87.9255C89.4729 95.1095 90.7274 93.8619 90.7274 92.3231V31.022C90.7274 29.185 90.7566 30.128 73.0958 12.3338ZM73.916 21.0305L81.1612 28.2356H73.916V21.0305ZM45.7103 21.0305L52.9554 28.2356H45.7103V21.0305ZM17.8781 11.1456C17.8781 8.07279 20.3919 5.57282 23.4819 5.57282C26.5718 5.57282 29.0857 8.07279 29.0857 11.1456V11.5172H17.8781V11.1456ZM6.48368 17.09H12.2743V30.6505C12.2743 35.2598 16.0451 39.0097 20.68 39.0097C25.3149 39.0097 29.0857 35.2598 29.0857 30.6505V25.2635C29.0857 23.7246 27.8312 22.477 26.2838 22.477C24.7364 22.477 23.4819 23.7246 23.4819 25.2635V30.6505C23.4819 32.1869 22.2249 33.4369 20.68 33.4369C19.135 33.4369 17.8781 32.1869 17.8781 30.6505V17.09H40.1065V31.022C40.1065 32.5609 41.361 33.8084 42.9084 33.8084H56.9179V89.5367H6.48368V17.09ZM62.5217 89.5367C62.5164 27.0126 62.6292 30.7256 62.3076 29.9543C61.9334 29.0589 62.4761 29.919 49.6725 17.09H68.3122V31.022C68.3122 32.5609 69.5667 33.8084 71.1141 33.8084H85.1236V89.5367H62.5217Z" fill="#DFE1E6"/>
</svg>
