<svg width="12" height="14" viewBox="0 0 12 14" fill="none" xmlns="http://www.w3.org/2000/svg">
<path d="M2.66667 11H9.33333V9.66671H2.66667V11Z" fill="#0052CC"/>
<path d="M9.33333 8.33337H2.66667V7.00004H9.33333V8.33337Z" fill="#0052CC"/>
<path d="M2.66667 5.66671H5.33333V4.33337H2.66667V5.66671Z" fill="#0052CC"/>
<path fill-rule="evenodd" clip-rule="evenodd" d="M2 0.333374C0.895431 0.333374 0 1.2288 0 2.33337V11.6667C0 12.7713 0.895431 13.6667 2 13.6667H10C11.1046 13.6667 12 12.7713 12 11.6667V5.00004C12 2.42271 9.91066 0.333374 7.33333 0.333374H2ZM2 1.66671H6.66667V5.00004H10.6667V11.6667C10.6667 12.0349 10.3682 12.3334 10 12.3334H2C1.63181 12.3334 1.33333 12.0349 1.33333 11.6667V2.33337C1.33333 1.96518 1.63181 1.66671 2 1.66671ZM8 1.73339C9.07422 1.95144 9.96085 2.68608 10.3893 3.66671H8V1.73339Z" fill="#0052CC"/>
</svg>
