<svg width="24" height="18" viewBox="0 0 24 18" fill="none" xmlns="http://www.w3.org/2000/svg">
<path d="M4 6C4 5.44772 4.44772 5 5 5H9C9.55228 5 10 5.44772 10 6C10 6.55228 9.55228 7 9 7H5C4.44772 7 4 6.55228 4 6Z" fill="#7A869A"/>
<path fill-rule="evenodd" clip-rule="evenodd" d="M4 0C1.79086 0 0 1.79086 0 4V14C0 16.2091 1.79086 18 4 18H20C22.2091 18 24 16.2091 24 14V4C24 1.79086 22.2091 0 20 0H4ZM20 2H4C2.89543 2 2 2.89543 2 4V11H22V4C22 2.89543 21.1046 2 20 2ZM22 13H2V14C2 15.1046 2.89543 16 4 16H20C21.1046 16 22 15.1046 22 14V13Z" fill="#7A869A"/>
</svg>
