<svg width="24" height="24" viewBox="0 0 24 24" fill="none" xmlns="http://www.w3.org/2000/svg">
<g clip-path="url(#clip0)">
<path d="M19.7031 3.61523H0.786047C0.351891 3.61523 0 3.96712 0 4.40128V16.1917C0 16.6258 0.351891 16.9777 0.786047 16.9777H19.7031C20.1372 16.9777 20.4891 16.6258 20.4891 16.1917V4.40128C20.4891 3.96712 20.1372 3.61523 19.7031 3.61523ZM18.917 15.4057H1.57205V5.18728H18.917V15.4057Z" fill="#00445D"/>
<path d="M10.5 8C9.12152 8 8 9.12152 8 10.5C8 11.8785 9.12152 13 10.5 13C11.8785 13 13 11.8785 13 10.5C13 9.12152 11.8785 8 10.5 8ZM10.5 11.9583C9.69582 11.9583 9.04166 11.3042 9.04166 10.5C9.04166 9.69582 9.69582 9.04166 10.5 9.04166C11.3042 9.04166 11.9583 9.69601 11.9583 10.5C11.9583 11.304 11.3042 11.9583 10.5 11.9583Z" fill="#00445D"/>
<path d="M2.98701 4.40137C2.98701 5.61501 1.99977 6.60224 0.786133 6.60224V8.17428C2.86649 8.17428 4.55905 6.48172 4.55905 4.40137H2.98701Z" fill="#00445D"/>
<path d="M17.5027 4.40137H15.9307C15.9307 6.48172 17.6232 8.17428 19.7036 8.17428V6.60224C18.4902 6.60224 17.5027 5.61501 17.5027 4.40137Z" fill="#00445D"/>
<path d="M0.786133 12.498V14.0701C1.99977 14.0701 2.98701 15.0571 2.98701 16.2707H4.55905C4.55905 14.1903 2.86645 12.4978 0.786133 12.498Z" fill="#00445D"/>
<path d="M15.9307 16.2707H17.5027C17.5027 15.057 18.4899 14.0698 19.7036 14.0701V12.498C17.6232 12.498 15.9307 14.1906 15.9307 16.2707Z" fill="#00445D"/>
<path d="M23.2138 7.02148H19.7028V8.59353H22.4277V18.8119H5.08279V16.1918H3.51074V19.5979C3.51074 20.0321 3.86263 20.384 4.29679 20.384H23.2138C23.648 20.384 23.9999 20.0321 23.9999 19.5979V7.80753C23.9998 7.37337 23.6479 7.02148 23.2138 7.02148Z" fill="#00445D"/>
<path d="M21.0125 7.80762H19.4404C19.4404 9.88788 21.1329 11.5804 23.2131 11.5805V10.0085C21.9998 10.0085 21.0125 9.02121 21.0125 7.80762Z" fill="#00445D"/>
<path d="M4.29688 15.9043V17.4763C5.51052 17.4763 6.49775 18.4633 6.49775 19.6769H8.0698C8.0698 17.5966 6.37723 15.9041 4.29688 15.9043Z" fill="#00445D"/>
<path d="M19.4404 19.6772H21.0125C21.0125 18.4636 21.9997 17.4763 23.2134 17.4763V15.9043C21.133 15.9043 19.4404 17.5969 19.4404 19.6772Z" fill="#00445D"/>
<circle cx="10.5" cy="10.5" r="1.5" fill="#00445D"/>
</g>
<defs>
<clipPath id="clip0">
<rect width="24" height="24" fill="white"/>
</clipPath>
</defs>
</svg>
