<svg width="24" height="17" viewBox="0 0 24 17" fill="none" xmlns="http://www.w3.org/2000/svg">
<path d="M22.9387 9.3136C22.8248 8.77878 22.2424 8.34832 21.1871 8.03091C20.3025 7.76567 19.1903 7.60914 17.9642 7.58305L17.8459 2.63489C17.6839 2.1479 17.1015 1.75222 16.1162 1.45655C15.131 1.16088 13.8479 1 12.4948 1C11.1461 1 9.87182 1.16088 8.90844 1.45655C8.11584 1.70005 7.16561 2.15225 7.16561 2.93056C7.16561 2.97839 7.16998 3.02622 7.17874 3.07405L7.22691 5.05679C6.90287 4.99592 6.57444 4.96548 6.24164 4.96548C3.35151 4.96548 1 7.30042 1 10.1702C1 13.0443 3.34275 15.3749 6.23726 15.3749C7.44148 15.3749 8.61067 14.9618 9.54339 14.2096C10.3666 14.4009 11.3344 14.5053 12.3591 14.5139C12.5824 15.7184 15.2142 16.2706 17.6664 16.2706C19.0151 16.2706 20.285 16.1054 21.2572 15.8097C22.0585 15.5662 23 15.1096 23 14.3313L22.9387 9.3136ZM9.15366 2.29139C10.0382 2.02181 11.2249 1.86962 12.4861 1.86962C13.7341 1.86962 14.9646 2.02181 15.8579 2.29139C16.8125 2.57837 17.0183 2.87404 17.0183 2.93491C17.0183 2.99579 16.8125 3.29146 15.8579 3.57843C14.9689 3.84367 13.7385 4.0002 12.4904 4.0002C11.2818 4.0002 10.1346 3.86106 9.26314 3.60887C8.32166 3.33929 8.05454 3.03927 8.03264 2.94361C8.03264 2.93926 8.02826 2.93491 8.02388 2.93056C8.02388 2.83925 8.31728 2.54793 9.15366 2.29139ZM17.0884 4.0089V5.09593C17.0402 5.16985 17.0183 5.25246 17.0183 5.33942C17.0183 5.39595 16.8125 5.69597 15.8623 5.98294C14.9733 6.25253 13.7428 6.40471 12.4948 6.40471C11.4132 6.40471 10.3535 6.29166 9.51274 6.0786C9.4996 6.07425 9.48647 6.07425 9.47771 6.0699C9.06608 5.7438 8.60191 5.48291 8.11146 5.30029L8.08081 4.07412C8.38296 4.2263 8.69825 4.34805 9.02667 4.43501C9.97691 4.70894 11.2074 4.85678 12.4992 4.85678C13.8523 4.85678 15.1354 4.6959 16.1162 4.40023C16.449 4.31327 16.7775 4.17847 17.0884 4.0089ZM9.17556 13.3747C7.39331 14.9879 4.63018 14.8575 3.00995 13.0878C1.38973 11.3181 1.51672 8.57442 3.29896 6.96562C4.1047 6.23948 5.15127 5.83511 6.23726 5.83511C6.67516 5.83511 7.10868 5.90033 7.52906 6.02642C8.09833 6.20035 8.62818 6.49167 9.07922 6.883C9.81489 7.50478 10.3185 8.35701 10.5155 9.29621C10.5725 9.58318 10.6031 9.87886 10.6031 10.1702C10.6075 11.392 10.0864 12.5573 9.17556 13.3747ZM10.2878 13.4704C10.6425 13.0399 10.9271 12.5573 11.1286 12.0399C11.5052 12.0703 11.8993 12.092 12.3065 12.0964C12.2978 12.1486 12.2978 12.1964 12.3065 12.2486L12.324 13.6487C11.6453 13.64 10.9666 13.5835 10.2878 13.4704ZM11.457 9.65275C11.7154 9.67015 11.9825 9.67884 12.2584 9.68319C12.2627 9.71363 12.2715 9.74406 12.2803 9.7745L12.2978 11.2224C11.9825 11.2181 11.6716 11.205 11.3782 11.1833C11.4439 10.8485 11.4789 10.505 11.4789 10.1658C11.4789 9.99625 11.4701 9.82668 11.457 9.65275ZM12.5255 8.81791C12.5123 8.81791 12.5036 8.81791 12.4904 8.81791C12.0657 8.81791 11.6628 8.80052 11.2862 8.77009C11.1242 8.19179 10.8571 7.64392 10.5068 7.15259C11.1636 7.2352 11.8292 7.27868 12.4904 7.27868C13.8436 7.27868 15.1266 7.1178 16.1075 6.82213C16.449 6.72647 16.7731 6.59168 17.084 6.4221V7.58305C15.9893 7.61349 14.9602 7.75263 14.1413 7.98308C13.3706 8.20048 12.832 8.47876 12.5255 8.81791ZM13.1298 9.46578C13.2042 9.33099 13.5326 9.06576 14.3865 8.83096C15.2448 8.59181 16.3615 8.46137 17.535 8.46137H17.5701C18.8225 8.46137 20.0486 8.60486 20.9375 8.87444C21.8571 9.15272 22.0804 9.431 22.0936 9.50492V9.50926C22.0892 9.57449 21.8746 9.87451 20.9025 10.1615C20.0048 10.4267 18.8181 10.5702 17.5701 10.5702C16.4096 10.5702 15.293 10.4398 14.4347 10.2093C13.6115 9.98756 13.2568 9.73102 13.1517 9.58318C13.1517 9.54405 13.1429 9.50492 13.1298 9.46578ZM22.1242 14.327C22.1242 14.3879 21.9315 14.6879 20.9988 14.9748C20.1055 15.2488 18.9232 15.401 17.662 15.401C16.3965 15.401 15.2186 15.2531 14.3384 14.9879C13.502 14.7314 13.2217 14.4444 13.2217 14.3487C13.2217 14.3444 13.2217 14.3444 13.2217 14.34L13.2174 14.0748L13.2042 13.0921C13.5545 13.2617 13.918 13.3921 14.2946 13.4834C15.2142 13.7226 16.3746 13.853 17.5701 13.853C18.9232 13.853 20.1931 13.6922 21.174 13.3965C21.4936 13.3008 21.8615 13.1704 22.1242 13.0008V14.327ZM22.0673 11.9181C22.0673 11.979 21.8658 12.2747 20.9244 12.5616C20.0267 12.8312 18.8356 12.9791 17.5657 12.9791C15.1835 12.9791 13.5633 12.4529 13.1867 12.0355L13.1692 10.6615C14.2026 11.1963 15.9411 11.4398 17.5701 11.4398C18.9013 11.4398 20.1668 11.2833 21.1433 10.9963C21.4849 10.9007 21.8133 10.7702 22.1286 10.6006V11.6877C22.1242 11.7529 22.0673 11.8312 22.0673 11.9181Z" fill="#8777D9" stroke="#8777D9" stroke-width="0.7"/>
</svg>
