<svg width="14" height="14" viewBox="0 0 14 14" fill="none" xmlns="http://www.w3.org/2000/svg">
<path fill-rule="evenodd" clip-rule="evenodd" d="M4.33301 5.00004C4.33301 2.42271 6.42235 0.333374 8.99967 0.333374C11.577 0.333374 13.6663 2.42271 13.6663 5.00004C13.6663 7.57737 11.577 9.66671 8.99967 9.66671H7.66634V11H6.33301V12.3334H4.99967V13.6667H0.333008V10.0572L4.43168 5.95856C4.36631 5.64569 4.33301 5.32491 4.33301 5.00004ZM6.33301 8.33337H8.99967C10.8406 8.33337 12.333 6.84099 12.333 5.00004C12.333 3.15909 10.8406 1.66671 8.99967 1.66671C7.15872 1.66671 5.66634 3.15909 5.66634 5.00004C5.66634 5.33246 5.7148 5.65763 5.80906 5.96862L5.92493 6.35092L1.66634 10.6095V12.3334H3.66634V11H4.99967V9.66671H6.33301V8.33337ZM7.66634 5.00004C7.66634 5.73642 8.26329 6.33337 8.99967 6.33337C9.73605 6.33337 10.333 5.73642 10.333 5.00004C10.333 4.26366 9.73605 3.66671 8.99967 3.66671C8.26329 3.66671 7.66634 4.26366 7.66634 5.00004Z" fill="#0052CC"/>
</svg>
