<svg width="22" height="18" viewBox="0 0 22 18" fill="none" xmlns="http://www.w3.org/2000/svg">
<path d="M18 13C18 12.4477 17.5523 12 17 12H9C8.44772 12 8 12.4477 8 13C8 13.5523 8.44772 14 9 14H17C17.5523 14 18 13.5523 18 13Z" fill="#7A869A"/>
<path d="M5 8C4.44772 8 4 8.44772 4 9C4 9.55228 4.44772 10 5 10H13C13.5523 10 14 9.55228 14 9C14 8.44772 13.5523 8 13 8H5Z" fill="#7A869A"/>
<path d="M7 13C7 12.4477 6.55228 12 6 12H5C4.44772 12 4 12.4477 4 13C4 13.5523 4.44772 14 5 14H6C6.55228 14 7 13.5523 7 13Z" fill="#7A869A"/>
<path d="M16 8C15.4477 8 15 8.44772 15 9C15 9.55228 15.4477 10 16 10H17C17.5523 10 18 9.55228 18 9C18 8.44772 17.5523 8 17 8H16Z" fill="#7A869A"/>
<path fill-rule="evenodd" clip-rule="evenodd" d="M19 0C20.6569 0 22 1.34315 22 3V15C22 16.6569 20.6569 18 19 18H3C1.34315 18 0 16.6569 0 15V3C0 1.34315 1.34315 0 3 0H19ZM3 2H19C19.5523 2 20 2.44772 20 3V15C20 15.5523 19.5523 16 19 16H3C2.44772 16 2 15.5523 2 15V3C2 2.44771 2.44772 2 3 2Z" fill="#7A869A"/>
</svg>
