<svg width="18" height="18" viewBox="0 0 18 18" fill="none" xmlns="http://www.w3.org/2000/svg">
<path d="M5 8C4.44772 8 4 8.44771 4 9C4 9.55229 4.44772 10 5 10H12.9595C13.5118 10 13.9595 9.55229 13.9595 9C13.9595 8.44771 13.5118 8 12.9595 8H5Z" fill="#7A869A"/>
<path d="M5.04053 12.0665C4.48824 12.0665 4.04053 12.5142 4.04053 13.0665C4.04053 13.6188 4.48824 14.0665 5.04053 14.0665H13C13.5523 14.0665 14 13.6188 14 13.0665C14 12.5142 13.5523 12.0665 13 12.0665H5.04053Z" fill="#7A869A"/>
<path fill-rule="evenodd" clip-rule="evenodd" d="M2 0C0.895431 0 0 0.89543 0 2V16C0 17.1046 0.89543 18 2 18H16C17.1046 18 18 17.1046 18 16V2C18 0.895431 17.1046 0 16 0H2ZM4 2H2L2 16H16V2H14V3C14 4.65685 12.6569 6 11 6H7C5.34315 6 4 4.65685 4 3V2ZM6 2V3C6 3.55228 6.44772 4 7 4H11C11.5523 4 12 3.55228 12 3V2H6Z" fill="#7A869A"/>
</svg>
