<svg width="22" height="21" viewBox="0 0 22 21" fill="none" xmlns="http://www.w3.org/2000/svg">
<path fill-rule="evenodd" clip-rule="evenodd" d="M11 8C13.2091 8 15 6.20914 15 4C15 1.79086 13.2091 0 11 0C8.79086 0 7 1.79086 7 4C7 6.20914 8.79086 8 11 8ZM11 6C12.1046 6 13 5.10457 13 4C13 2.89543 12.1046 2 11 2C9.89543 2 9 2.89543 9 4C9 5.10457 9.89543 6 11 6ZM14 11C14.5523 11 15 11.4477 15 12V15H17V12C17 10.3431 15.6569 9 14 9H8C6.34315 9 5 10.3431 5 12V15H7V12C7 11.4477 7.44771 11 8 11H14ZM2 10.1176C2 8.04351 2.71915 6.13679 3.92732 4.62406L2.36456 3.37594C0.884926 5.22858 0 7.5717 0 10.1176C0 16.1389 4.93606 21 11 21C17.0639 21 22 16.1389 22 10.1176C22 7.5717 21.1151 5.22858 19.6354 3.37594L18.0727 4.62406C19.2808 6.13679 20 8.04351 20 10.1176C20 15.0121 15.9818 19 11 19C6.01825 19 2 15.0121 2 10.1176Z" fill="#7A869A"/>
</svg>
