<svg width="10" height="16" viewBox="0 0 10 16" fill="none" xmlns="http://www.w3.org/2000/svg"> <path d="M6.33301 0C8.17396 0 9.66634 1.49238 9.66634 3.33333V11.3333C9.66634 13.9107 7.577 16 4.99967 16C2.42235 16 0.333008 13.9107 0.333008 11.3333V6H1.66634V11.3333C1.66634 13.1743 3.15873 14.6667 4.99967 14.6667C6.84062 14.6667 8.33301 13.1743 8.33301 11.3333V3.33333C8.33301 2.22876 7.43758 1.33333 6.33301 1.33333C5.22844 1.33333 4.33301 2.22876 4.33301 3.33333V11.3333C4.33301 11.7015 4.63148 12 4.99967 12C5.36786 12 5.66634 11.7015 5.66634 11.3333V4H6.99967V11.3333C6.99967 12.4379 6.10424 13.3333 4.99967 13.3333C3.89511 13.3333 2.99967 12.4379 2.99967 11.3333V3.33333C2.99967 1.49238 4.49206 0 6.33301 0Z" fill="#0052CC"/> </svg>