<svg width="20" height="21" viewBox="0 0 20 21" fill="none" xmlns="http://www.w3.org/2000/svg">
<path fill-rule="evenodd" clip-rule="evenodd" d="M14.3248 13.3987L19.7048 18.7787C19.8939 18.968 20 19.2246 20 19.4921C19.9999 19.7596 19.8935 20.0161 19.7043 20.2052C19.515 20.3943 19.2584 20.5005 18.9909 20.5004C18.7234 20.5003 18.4669 20.394 18.2778 20.2047L12.8978 14.8247C11.2895 16.0704 9.26704 16.6566 7.24189 16.4641C5.21674 16.2716 3.341 15.3148 1.99625 13.7884C0.6515 12.2619 -0.0612416 10.2806 0.00301976 8.24729C0.0672811 6.21402 0.903718 4.2816 2.34217 2.84315C3.78063 1.4047 5.71305 0.568258 7.74631 0.503996C9.77958 0.439735 11.761 1.15248 13.2874 2.49723C14.8138 3.84198 15.7706 5.71772 15.9631 7.74287C16.1556 9.76802 15.5694 11.7905 14.3238 13.3987H14.3248ZM7.99977 14.4997C9.59107 14.4997 11.1172 13.8676 12.2424 12.7424C13.3676 11.6172 13.9998 10.091 13.9998 8.49974C13.9998 6.90845 13.3676 5.38232 12.2424 4.2571C11.1172 3.13189 9.59107 2.49974 7.99977 2.49974C6.40847 2.49974 4.88235 3.13189 3.75713 4.2571C2.63191 5.38232 1.99977 6.90845 1.99977 8.49974C1.99977 10.091 2.63191 11.6172 3.75713 12.7424C4.88235 13.8676 6.40847 14.4997 7.99977 14.4997Z" fill="#7A869A"/>
</svg>
