<svg width="16" height="16" viewBox="0 0 16 16" fill="none" xmlns="http://www.w3.org/2000/svg">
<path fill-rule="evenodd" clip-rule="evenodd" d="M5.33366 3.99935H3.40972C4.69676 2.52693 6.10647 1.99935 8.00033 1.99935C11.314 1.99935 14.0003 4.68564 14.0003 7.99935C14.0003 11.3131 11.314 13.9993 8.00033 13.9993C4.68662 13.9993 2.00033 11.3131 2.00033 7.99935H0.666992C0.666992 12.0494 3.95024 15.3327 8.00033 15.3327C12.0504 15.3327 15.3337 12.0494 15.3337 7.99935C15.3337 3.94926 12.0504 0.666016 8.00033 0.666016C5.85808 0.666016 4.15838 1.27305 2.66699 2.83698V1.32682H1.33366V5.33268H5.33366V3.99935ZM11.3337 7.33268H8.66699V3.99935H7.33366V8.66602H11.3337V7.33268Z" fill="#0052CC"/>
</svg>
