<svg width="16" height="12" viewBox="0 0 16 12" fill="none" xmlns="http://www.w3.org/2000/svg">
<path fill-rule="evenodd" clip-rule="evenodd" d="M10.0003 5.99996C11.4737 5.99996 12.667 4.80663 12.667 3.33329C12.667 1.85996 11.4737 0.666626 10.0003 0.666626C8.52699 0.666626 7.33366 1.85996 7.33366 3.33329C7.33366 4.80663 8.52699 5.99996 10.0003 5.99996ZM10.0003 1.99996C10.7337 1.99996 11.3337 2.59996 11.3337 3.33329C11.3337 4.06663 10.7337 4.66663 10.0003 4.66663C9.26699 4.66663 8.66699 4.06663 8.66699 3.33329C8.66699 2.59996 9.26699 1.99996 10.0003 1.99996ZM4.66699 9.99996C4.66699 8.22663 8.22032 7.33329 10.0003 7.33329C11.7803 7.33329 15.3337 8.22663 15.3337 9.99996V11.3333H4.66699V9.99996ZM6.00033 9.99996C6.14699 9.51996 8.20699 8.66663 10.0003 8.66663C11.8003 8.66663 13.867 9.52663 14.0003 9.99996H6.00033ZM4.00033 5.99996V7.99996H2.66699V5.99996H0.666992V4.66663H2.66699V2.66663H4.00033V4.66663H6.00033V5.99996H4.00033Z" fill="#0052CC"/>
</svg>
