<svg width="20" height="14" viewBox="0 0 20 14" fill="none" xmlns="http://www.w3.org/2000/svg">
<path d="M20 0.995193C20 0.445563 19.5544 0 19.0048 0H10.9952C10.4456 0 10 0.445563 10 0.995193C10 1.54482 10.4456 1.99039 10.9952 1.99039H19.0048C19.5544 1.99039 20 1.54482 20 0.995193Z" fill="#505F79"/>
<path d="M20 6.99976C20 6.45013 19.5544 6.00456 19.0048 6.00456H0.995193C0.445564 6.00456 0 6.45013 0 6.99976C0 7.54939 0.445562 7.99495 0.995193 7.99495H19.0048C19.5544 7.99495 20 7.54939 20 6.99976Z" fill="#505F79"/>
<path d="M19.0048 12.0096C19.5544 12.0096 20 12.4552 20 13.0048C20 13.5544 19.5544 14 19.0048 14H6.99519C6.44556 14 6 13.5544 6 13.0048C6 12.4552 6.44556 12.0096 6.99519 12.0096H19.0048Z" fill="#505F79"/>
</svg>
