<svg width="24" height="24" viewBox="0 0 24 24" fill="none" xmlns="http://www.w3.org/2000/svg">
<g clip-path="url(#clip0)">
<path d="M19.7031 3.61572H0.786047C0.351891 3.61572 0 3.96761 0 4.40177V16.1921C0 16.6263 0.351891 16.9782 0.786047 16.9782H19.7031C20.1372 16.9782 20.4891 16.6263 20.4891 16.1921V4.40177C20.4891 3.96761 20.1372 3.61572 19.7031 3.61572ZM18.917 15.4061H1.57205V5.18777H18.917V15.4061Z" fill="#7A869A"/>
<path d="M10.5 8C9.12152 8 8 9.12152 8 10.5C8 11.8785 9.12152 13 10.5 13C11.8785 13 13 11.8785 13 10.5C13 9.12152 11.8785 8 10.5 8ZM10.5 11.9583C9.69582 11.9583 9.04166 11.3042 9.04166 10.5C9.04166 9.69582 9.69582 9.04166 10.5 9.04166C11.3042 9.04166 11.9583 9.69601 11.9583 10.5C11.9583 11.304 11.3042 11.9583 10.5 11.9583Z" fill="#7A869A"/>
<path d="M2.98701 4.40173C2.98701 5.61537 1.99977 6.6026 0.786133 6.6026V8.17465C2.86649 8.17465 4.55905 6.48209 4.55905 4.40173H2.98701Z" fill="#7A869A"/>
<path d="M17.5027 4.40173H15.9307C15.9307 6.48209 17.6232 8.17465 19.7036 8.17465V6.6026C18.4902 6.6026 17.5027 5.61537 17.5027 4.40173Z" fill="#7A869A"/>
<path d="M0.786133 12.4982V14.0702C1.99977 14.0702 2.98701 15.0572 2.98701 16.2708H4.55905C4.55905 14.1904 2.86645 12.4979 0.786133 12.4982Z" fill="#7A869A"/>
<path d="M15.9307 16.2708H17.5027C17.5027 15.0572 18.4899 14.0699 19.7036 14.0702V12.4982C17.6232 12.4982 15.9307 14.1907 15.9307 16.2708Z" fill="#7A869A"/>
<path d="M23.2138 7.02185H19.7028V8.5939H22.4277V18.8122H5.08279V16.1921H3.51074V19.5983C3.51074 20.0324 3.86263 20.3843 4.29679 20.3843H23.2138C23.648 20.3843 23.9999 20.0324 23.9999 19.5983V7.8079C23.9998 7.37374 23.6479 7.02185 23.2138 7.02185Z" fill="#7A869A"/>
<path d="M21.0125 7.80786H19.4404C19.4404 9.88813 21.1329 11.5806 23.2131 11.5808V10.0087C21.9998 10.0087 21.0125 9.02146 21.0125 7.80786Z" fill="#7A869A"/>
<path d="M4.29688 15.9041V17.4761C5.51052 17.4761 6.49775 18.4631 6.49775 19.6767H8.0698C8.0698 17.5964 6.37723 15.9038 4.29688 15.9041Z" fill="#7A869A"/>
<path d="M19.4404 19.677H21.0125C21.0125 18.4633 21.9997 17.4761 23.2134 17.4761V15.9041C21.133 15.9041 19.4404 17.5966 19.4404 19.677Z" fill="#7A869A"/>
<circle cx="10.5" cy="10.5" r="1.5" fill="#7A869A"/>
</g>
<defs>
<clipPath id="clip0">
<rect width="24" height="24" fill="white"/>
</clipPath>
</defs>
</svg>
