<svg width="102" height="101" viewBox="0 0 102 101" fill="none" xmlns="http://www.w3.org/2000/svg"> <path d="M79.0958 12.3338C78.5739 11.8148 77.8589 11.5172 77.1141 11.5172C75.866 11.5172 43.6942 11.5172 40.6895 11.5172V11.1456C40.6895 4.99993 35.6617 0 29.4819 0C23.302 0 18.2743 4.99993 18.2743 11.1456V11.5172H9.68178C8.13439 11.5172 6.87988 12.7647 6.87988 14.3036V92.3231C6.87988 93.8619 8.13439 95.1095 9.68178 95.1095H93.9255C95.4729 95.1095 96.7274 93.8619 96.7274 92.3231V31.022C96.7274 29.185 96.7566 30.128 79.0958 12.3338ZM79.916 21.0305L87.1612 28.2356H79.916V21.0305ZM51.7103 21.0305L58.9554 28.2356H51.7103V21.0305ZM23.8781 11.1456C23.8781 8.07279 26.3919 5.57282 29.4819 5.57282C32.5718 5.57282 35.0857 8.07279 35.0857 11.1456V11.5172H23.8781V11.1456ZM12.4837 17.09H18.2743V30.6505C18.2743 35.2598 22.0451 39.0097 26.68 39.0097C31.3149 39.0097 35.0857 35.2598 35.0857 30.6505V25.2635C35.0857 23.7246 33.8312 22.477 32.2838 22.477C30.7364 22.477 29.4819 23.7246 29.4819 25.2635V30.6505C29.4819 32.1869 28.2249 33.4369 26.68 33.4369C25.135 33.4369 23.8781 32.1869 23.8781 30.6505V17.09H46.1065V31.022C46.1065 32.5609 47.361 33.8084 48.9084 33.8084H62.9179V89.5367H12.4837V17.09ZM68.5217 89.5367C68.5164 27.0126 68.6292 30.7256 68.3076 29.9543C67.9334 29.0589 68.4761 29.919 55.6725 17.09H74.3122V31.022C74.3122 32.5609 75.5667 33.8084 77.1141 33.8084H91.1236V89.5367H68.5217Z" fill="#DFE1E6"/> <path d="M18.9824 44.7686H56.9994V50.3414H18.9824V44.7686Z" fill="#DFE1E6"/> <path d="M19 56H57.0169V61.5728H19V56Z" fill="#DFE1E6"/> <path d="M19 68H36V74H19V68Z" fill="#DFE1E6"/> <path d="M19 78H36V84H19V78Z" fill="#DFE1E6"/> <path d="M54.4187 67.0596H43.2111C41.6637 67.0596 40.4092 68.3071 40.4092 69.846V80.9916C40.4092 82.5305 41.6637 83.778 43.2111 83.778H54.4187C55.9661 83.778 57.2206 82.5305 57.2206 80.9916V69.846C57.2206 68.3071 55.9661 67.0596 54.4187 67.0596ZM51.6168 78.2052H46.013V72.6324H51.6168V78.2052Z" fill="#DFE1E6"/> <path fill-rule="evenodd" clip-rule="evenodd" d="M97.917 101L0.000491943 9.90739L4.08398 5.56641L102 96.6594L97.917 101Z" fill="#DFE1E6"/> </svg>