<svg width="66" height="51" viewBox="0 0 66 51" fill="none" xmlns="http://www.w3.org/2000/svg">
<path fill-rule="evenodd" clip-rule="evenodd" d="M48 39V45H51C59.2843 45 66 38.2843 66 30C66 22.4549 60.4292 16.2109 53.1763 15.1567C50.625 6.31686 42.4759 0 33 0C25.9603 0 19.527 3.49522 15.6597 9.15082C6.80109 10.3004 0 17.8763 0 27C0 36.9411 8.05887 45 18 45V39C11.3726 39 6 33.6274 6 27C6 20.5513 11.098 15.2615 17.519 15.0094L19.172 14.9445L19.9992 13.512C22.6629 8.89929 27.5772 6 33 6C40.3534 6 46.591 11.3288 47.7928 18.4985L48.2213 21.0545L50.8125 21.0019C50.8592 21.0011 50.8825 21.0007 50.9059 21.0005C50.9294 21.0002 50.9529 21.0002 51 21C55.9706 21 60 25.0294 60 30C60 34.9706 55.9706 39 51 39H48ZM36.0002 51.0001V31.2427L42.8788 38.1214L47.1215 33.8787L33.0002 19.7574L18.8788 33.8787L23.1215 38.1214L30.0002 31.2427V51.0001H36.0002Z" fill="#DFE1E6"/>
</svg>
