<svg width="20" height="20" viewBox="0 0 20 20" fill="none" xmlns="http://www.w3.org/2000/svg">
<path fill-rule="evenodd" clip-rule="evenodd" d="M17.5018 10C17.5018 10.34 17.4718 10.66 17.4318 10.98L19.5418 12.63C19.7318 12.78 19.7818 13.05 19.6618 13.27L17.6618 16.73C17.5718 16.89 17.4018 16.98 17.2318 16.98C17.1718 16.98 17.1118 16.97 17.0518 16.95L14.5618 15.95C14.0418 16.34 13.4818 16.68 12.8718 16.93L12.4918 19.58C12.4618 19.82 12.2518 20 12.0018 20H8.00179C7.75179 20 7.54179 19.82 7.51179 19.58L7.13179 16.93C6.52179 16.68 5.96179 16.35 5.44179 15.95L2.95179 16.95C2.90179 16.97 2.84179 16.98 2.78179 16.98C2.60179 16.98 2.43179 16.89 2.34179 16.73L0.341793 13.27C0.221793 13.05 0.271793 12.78 0.461793 12.63L2.57179 10.98C2.53179 10.66 2.50179 10.33 2.50179 10C2.50179 9.67 2.53179 9.34 2.57179 9.02L0.461793 7.37C0.271793 7.22 0.211793 6.95 0.341793 6.73L2.34179 3.27C2.43179 3.11 2.60179 3.02 2.77179 3.02C2.83179 3.02 2.89179 3.03 2.95179 3.05L5.44179 4.05C5.96179 3.66 6.52179 3.32 7.13179 3.07L7.51179 0.42C7.54179 0.18 7.75179 0 8.00179 0H12.0018C12.2518 0 12.4618 0.18 12.4918 0.42L12.8718 3.07C13.4818 3.32 14.0418 3.65 14.5618 4.05L17.0518 3.05C17.1018 3.03 17.1618 3.02 17.2218 3.02C17.4018 3.02 17.5718 3.11 17.6618 3.27L19.6618 6.73C19.7818 6.95 19.7318 7.22 19.5418 7.37L17.4318 9.02C17.4718 9.34 17.5018 9.66 17.5018 10ZM15.5018 10C15.5018 9.79 15.4918 9.58 15.4518 9.27L15.3118 8.14L16.2018 7.44L17.2718 6.59L16.5718 5.38L15.3018 5.89L14.2418 6.32L13.3318 5.62C12.9318 5.32 12.5318 5.09 12.1018 4.91L11.0418 4.48L10.8818 3.35L10.6918 2H9.30179L9.10179 3.35L8.94179 4.48L7.88179 4.91C7.47179 5.08 7.06179 5.32 6.63179 5.64L5.73179 6.32L4.69179 5.9L3.42179 5.39L2.72179 6.6L3.80179 7.44L4.69179 8.14L4.55179 9.27C4.52179 9.57 4.50179 9.8 4.50179 10C4.50179 10.2 4.52179 10.43 4.55179 10.74L4.69179 11.87L3.80179 12.57L2.72179 13.41L3.42179 14.62L4.69179 14.11L5.75179 13.68L6.66179 14.38C7.06179 14.68 7.46179 14.91 7.89179 15.09L8.95179 15.52L9.11179 16.65L9.30179 18H10.7018L10.9018 16.65L11.0618 15.52L12.1218 15.09C12.5318 14.92 12.9418 14.68 13.3718 14.36L14.2718 13.68L15.3118 14.1L16.5818 14.61L17.2818 13.4L16.2018 12.56L15.3118 11.86L15.4518 10.73C15.4818 10.43 15.5018 10.21 15.5018 10ZM10.0018 6C7.79179 6 6.00179 7.79 6.00179 10C6.00179 12.21 7.79179 14 10.0018 14C12.2118 14 14.0018 12.21 14.0018 10C14.0018 7.79 12.2118 6 10.0018 6ZM8.00179 10C8.00179 11.1 8.90179 12 10.0018 12C11.1018 12 12.0018 11.1 12.0018 10C12.0018 8.9 11.1018 8 10.0018 8C8.90179 8 8.00179 8.9 8.00179 10Z" fill="#7A869A"/>
</svg>
