<svg width="40" height="40" viewBox="0 0 40 40" fill="none" xmlns="http://www.w3.org/2000/svg">
<circle cx="20" cy="20" r="20" fill="#00445D"/>
<path d="M14.1669 14.5938C11.1215 14.5938 10.12 11.5313 10 10H23.221C24.0382 10.134 24.6941 10.3972 25.2152 10.7475C28.4718 12.9362 25.8952 17.7998 24.0581 21.2676L24.057 21.2697L22.9637 23.3333C20.371 21.6303 20.7688 18.5528 21.3175 17.2829L22.758 14.5938H14.1669Z" fill="white"/>
<path d="M25.8331 25.4062C28.8785 25.4062 29.88 28.4687 30 30L16.779 30C15.9618 29.866 15.3059 29.6028 14.7848 29.2525C11.5282 27.0638 14.1048 22.2002 15.9419 18.7324L15.943 18.7303L17.0363 16.6667C19.629 18.3697 19.2312 21.4472 18.6825 22.7171L17.242 25.4062L25.8331 25.4062Z" fill="white"/>
</svg>
