<svg width="22" height="22" viewBox="0 0 22 22" fill="none" xmlns="http://www.w3.org/2000/svg">
<path d="M11 16.8617C11.5946 16.8617 12.0766 16.3797 12.0766 15.7852C12.0766 15.1906 11.5946 14.7086 11 14.7086C10.4054 14.7086 9.92344 15.1906 9.92344 15.7852C9.92344 16.3797 10.4054 16.8617 11 16.8617ZM11 0.9C5.41806 0.9 0.9 5.41731 0.9 11C0.9 16.5819 5.41731 21.1 11 21.1C16.5819 21.1 21.1 16.5827 21.1 11C21.1 5.41806 16.5827 0.9 11 0.9ZM11 19.3375C6.39206 19.3375 2.6625 15.6086 2.6625 11C2.6625 6.39206 6.39144 2.6625 11 2.6625C15.6079 2.6625 19.3375 6.39144 19.3375 11C19.3375 15.6079 15.6086 19.3375 11 19.3375ZM11 5.91953C9.22165 5.91953 7.775 7.36618 7.775 9.14453C7.775 9.63124 8.16954 10.0258 8.65625 10.0258C9.14296 10.0258 9.5375 9.63124 9.5375 9.14453C9.5375 8.3382 10.1937 7.68203 11 7.68203C11.8063 7.68203 12.4625 8.3382 12.4625 9.14453C12.4625 9.95087 11.8063 10.607 11 10.607C10.5133 10.607 10.1187 11.0016 10.1187 11.4883V13.4414C10.1187 13.9281 10.5133 14.3227 11 14.3227C11.4867 14.3227 11.8813 13.9281 11.8813 13.4414V12.2471C13.2324 11.8628 14.225 10.6177 14.225 9.14453C14.225 7.36618 12.7784 5.91953 11 5.91953Z" fill="#7A869A" stroke="#7A869A" stroke-width="0.2"/>
</svg>
