<svg width="22" height="22" viewBox="0 0 22 22" fill="none" xmlns="http://www.w3.org/2000/svg">
<path fill-rule="evenodd" clip-rule="evenodd" d="M11 22C4.92487 22 0 17.0751 0 11C0 4.92487 4.92487 0 11 0C17.0751 0 22 4.92487 22 11C22 17.0751 17.0751 22 11 22ZM11 20C15.9706 20 20 15.9706 20 11C20 6.02944 15.9706 2 11 2C6.02944 2 2 6.02944 2 11C2 15.9706 6.02944 20 11 20ZM13 14C13 15.1046 13.8954 16 15 16C16.1046 16 17 15.1046 17 14C17 12.8954 16.1046 12 15 12C13.8954 12 13 12.8954 13 14ZM15 15C15.5523 15 16 14.5523 16 14C16 13.4477 15.5523 13 15 13C14.4477 13 14 13.4477 14 14C14 14.5523 14.4477 15 15 15ZM5 8C5 9.10457 5.89543 10 7 10C8.10457 10 9 9.10457 9 8C9 6.89543 8.10457 6 7 6C5.89543 6 5 6.89543 5 8ZM7 9C7.55228 9 8 8.55229 8 8C8 7.44772 7.55228 7 7 7C6.44772 7 6 7.44772 6 8C6 8.55229 6.44772 9 7 9ZM9.11803 17L15.118 5H12.882L6.88197 17H9.11803Z" fill="#7A869A"/>
</svg>
