<svg width="20" height="20" viewBox="0 0 20 20" fill="none" xmlns="http://www.w3.org/2000/svg">
<path d="M8 5H4.19306C5.55354 3.0787 7.60638 2 10 2C14.4183 2 18 5.58172 18 10H20C20 4.47715 15.5228 0 10 0C7.19577 0 4.72511 1.18251 3 3.27035V0H1V7H8V5Z" fill="#7A869A"/>
<path d="M12 15H15.8069C14.4465 16.9213 12.3936 18 10 18C5.58172 18 2 14.4183 2 10H0C0 15.5228 4.47715 20 10 20C12.8042 20 15.2749 18.8175 17 16.7297V20H19V13H12V15Z" fill="#7A869A"/>
<path d="M12 10C12 11.1046 11.1046 12 10 12C8.89543 12 8 11.1046 8 10C8 8.89543 8.89543 8 10 8C11.1046 8 12 8.89543 12 10Z" fill="#7A869A"/>
</svg>
