<svg width="24" height="24" viewBox="0 0 24 24" fill="none" xmlns="http://www.w3.org/2000/svg">
    <path fill-rule="evenodd" clip-rule="evenodd" d="M16.1407 0.28339C17.4152 -0.0807482 18.7435 0.657233 19.1077 1.93172C19.1689 2.14614 19.2 2.36805 19.2 2.59105V4.60018H21.6C22.9255 4.60018 24 5.67469 24 7.00018V21.4002C24 22.7257 22.9255 23.8002 21.6 23.8002H2.4C1.07452 23.8002 0 22.7257 0 21.4002H0.0320448C0.0107423 21.2711 0 21.1404 0 21.0093V6.70533C0 5.63378 0.710346 4.69205 1.74067 4.39768L16.1407 0.28339ZM9.76805 21.4002H21.6V11.8002H19.2V16.895C19.2 17.9666 18.4897 18.9083 17.4593 19.2027L9.76805 21.4002ZM21.6 7.00018V9.40018H19.2V7.00018H21.6ZM2.4 6.7053V21.0093L16.8 16.895V2.59102L2.4 6.7053ZM14.4 9.40018C14.4 10.0629 13.8627 10.6002 13.2 10.6002C12.5373 10.6002 12 10.0629 12 9.40018C12 8.73743 12.5373 8.20018 13.2 8.20018C13.8627 8.20018 14.4 8.73743 14.4 9.40018Z" fill="#00B8D9" />
</svg>