<svg width="100" height="18" viewBox="0 0 100 18" fill="none" xmlns="http://www.w3.org/2000/svg">
<path d="M11.976 10.6V13H0.912V11.104L7.944 2.584H1.056V0.183999H11.784V2.08L4.728 10.6H11.976ZM26.6019 6.664C26.6019 6.872 26.5859 7.168 26.5539 7.552H16.4979C16.6739 8.496 17.1299 9.248 17.8659 9.808C18.6179 10.352 19.5459 10.624 20.6499 10.624C22.0579 10.624 23.2179 10.16 24.1299 9.232L25.7379 11.08C25.1619 11.768 24.4339 12.288 23.5539 12.64C22.6739 12.992 21.6819 13.168 20.5779 13.168C19.1699 13.168 17.9299 12.888 16.8579 12.328C15.7859 11.768 14.9539 10.992 14.3619 10C13.7859 8.992 13.4979 7.856 13.4979 6.592C13.4979 5.344 13.7779 4.224 14.3379 3.232C14.9139 2.224 15.7059 1.44 16.7139 0.88C17.7219 0.32 18.8579 0.0399995 20.1219 0.0399995C21.3699 0.0399995 22.4819 0.32 23.4579 0.88C24.4499 1.424 25.2179 2.2 25.7619 3.208C26.3219 4.2 26.6019 5.352 26.6019 6.664ZM20.1219 2.44C19.1619 2.44 18.3459 2.728 17.6739 3.304C17.0179 3.864 16.6179 4.616 16.4739 5.56H23.7459C23.6179 4.632 23.2259 3.88 22.5699 3.304C21.9139 2.728 21.0979 2.44 20.1219 2.44ZM36.7556 0.0399995C38.3716 0.0399995 39.6676 0.511999 40.6436 1.456C41.6196 2.4 42.1076 3.8 42.1076 5.656V13H39.1076V6.04C39.1076 4.92 38.8436 4.08 38.3156 3.52C37.7876 2.944 37.0356 2.656 36.0596 2.656C34.9556 2.656 34.0836 2.992 33.4436 3.664C32.8036 4.32 32.4836 5.272 32.4836 6.52V13H29.4836V0.183999H32.3396V1.84C32.8356 1.248 33.4596 0.799999 34.2116 0.495999C34.9636 0.191999 35.8116 0.0399995 36.7556 0.0399995ZM58.5585 0.183999V17.656H55.5585V11.44C54.5505 12.592 53.1825 13.168 51.4545 13.168C50.2065 13.168 49.0865 12.896 48.0945 12.352C47.1185 11.808 46.3505 11.04 45.7905 10.048C45.2465 9.056 44.9745 7.904 44.9745 6.592C44.9745 5.296 45.2545 4.152 45.8145 3.16C46.3745 2.168 47.1425 1.4 48.1185 0.855999C49.0945 0.311999 50.2065 0.0399995 51.4545 0.0399995C52.3345 0.0399995 53.1345 0.191999 53.8545 0.495999C54.5905 0.799999 55.2065 1.256 55.7025 1.864V0.183999H58.5585ZM51.7905 10.6C52.8945 10.6 53.8065 10.232 54.5265 9.496C55.2465 8.76 55.6065 7.792 55.6065 6.592C55.6065 5.392 55.2465 4.424 54.5265 3.688C53.8065 2.952 52.8945 2.584 51.7905 2.584C50.6865 2.584 49.7745 2.952 49.0545 3.688C48.3505 4.424 47.9985 5.392 47.9985 6.592C47.9985 7.792 48.3505 8.76 49.0545 9.496C49.7745 10.232 50.6865 10.6 51.7905 10.6ZM68.2436 13.168C66.9476 13.168 65.7796 12.888 64.7396 12.328C63.6996 11.768 62.8836 10.992 62.2916 10C61.7156 8.992 61.4276 7.856 61.4276 6.592C61.4276 5.328 61.7156 4.2 62.2916 3.208C62.8836 2.216 63.6996 1.44 64.7396 0.88C65.7796 0.32 66.9476 0.0399995 68.2436 0.0399995C69.5556 0.0399995 70.7316 0.32 71.7716 0.88C72.8116 1.44 73.6196 2.216 74.1956 3.208C74.7876 4.2 75.0836 5.328 75.0836 6.592C75.0836 7.856 74.7876 8.992 74.1956 10C73.6196 10.992 72.8116 11.768 71.7716 12.328C70.7316 12.888 69.5556 13.168 68.2436 13.168ZM68.2436 10.6C69.3476 10.6 70.2596 10.232 70.9796 9.496C71.6996 8.76 72.0596 7.792 72.0596 6.592C72.0596 5.392 71.6996 4.424 70.9796 3.688C70.2596 2.952 69.3476 2.584 68.2436 2.584C67.1396 2.584 66.2276 2.952 65.5076 3.688C64.8036 4.424 64.4516 5.392 64.4516 6.592C64.4516 7.792 64.8036 8.76 65.5076 9.496C66.2276 10.232 67.1396 10.6 68.2436 10.6ZM80.8084 2.056C81.6724 0.711999 83.1924 0.0399995 85.3684 0.0399995V2.896C85.1124 2.848 84.8804 2.824 84.6724 2.824C83.5044 2.824 82.5924 3.168 81.9364 3.856C81.2804 4.528 80.9524 5.504 80.9524 6.784V13H77.9524V0.183999H80.8084V2.056ZM99.8441 6.664C99.8441 6.872 99.8281 7.168 99.7961 7.552H89.7401C89.9161 8.496 90.3721 9.248 91.1081 9.808C91.8601 10.352 92.7881 10.624 93.8921 10.624C95.3001 10.624 96.4601 10.16 97.3721 9.232L98.9801 11.08C98.4041 11.768 97.6761 12.288 96.7961 12.64C95.9161 12.992 94.9241 13.168 93.8201 13.168C92.4121 13.168 91.1721 12.888 90.1001 12.328C89.0281 11.768 88.1961 10.992 87.6041 10C87.0281 8.992 86.7401 7.856 86.7401 6.592C86.7401 5.344 87.0201 4.224 87.5801 3.232C88.1561 2.224 88.9481 1.44 89.9561 0.88C90.9641 0.32 92.1001 0.0399995 93.3641 0.0399995C94.6121 0.0399995 95.7241 0.32 96.7001 0.88C97.6921 1.424 98.4601 2.2 99.0041 3.208C99.5641 4.2 99.8441 5.352 99.8441 6.664ZM93.3641 2.44C92.4041 2.44 91.5881 2.728 90.9161 3.304C90.2601 3.864 89.8601 4.616 89.7161 5.56H96.9881C96.8601 4.632 96.4681 3.88 95.8121 3.304C95.1561 2.728 94.3401 2.44 93.3641 2.44Z" fill="#00445D"/>
</svg>
