<svg width="24" height="24" viewBox="0 0 24 24" fill="none" xmlns="http://www.w3.org/2000/svg">
<path d="M2.86927 3.8874C2.46521 3.27627 2.21165 2.57018 2.0726 1.9502H15.1213C16.0688 2.11839 16.7399 2.46935 17.2177 2.89857C18.3492 3.91512 18.4951 5.34028 18.0369 7.11352C17.6019 8.7974 16.6704 10.5892 15.8068 12.2502C15.7543 12.3513 15.702 12.4519 15.6501 12.5519L14.6723 14.4364C13.9772 13.7361 13.6516 12.8921 13.5399 12.0579C13.3965 10.9877 13.6129 9.96426 13.8514 9.38514L15.3598 6.50998C15.4818 6.2775 15.4733 5.99816 15.3375 5.77349C15.2017 5.54882 14.9582 5.41154 14.6957 5.41154H5.608C4.30469 5.41154 3.44759 4.7621 2.86927 3.8874Z" fill="white" stroke="#7A869A" stroke-width="1.5" stroke-linejoin="round"/>
<path d="M21.1307 20.1126C21.5348 20.7237 21.7884 21.4298 21.9274 22.0498L8.87868 22.0498C7.93121 21.8816 7.26007 21.5306 6.78231 21.1014C5.65079 20.0849 5.50491 18.6597 5.96306 16.8865C6.39811 15.2026 7.3296 13.4108 8.19316 11.7498C8.2457 11.6487 8.298 11.5481 8.34991 11.448L9.32772 9.56359C10.0228 10.2639 10.3484 11.1079 10.4601 11.9421C10.6035 13.0123 10.3871 14.0357 10.1486 14.6149L8.64016 17.49C8.51819 17.7225 8.52666 18.0018 8.6625 18.2265C8.79834 18.4512 9.04177 18.5885 9.30431 18.5885L18.392 18.5885C19.6953 18.5885 20.5524 19.2379 21.1307 20.1126Z" fill="white" stroke="#7A869A" stroke-width="1.5" stroke-linejoin="round"/>
</svg>
