<svg width="133" height="25" viewBox="0 0 133 25" fill="none" xmlns="http://www.w3.org/2000/svg">
<path d="M14.968 14.8V18H0.216V15.472L9.592 4.112H0.408V0.911999H14.712V3.44L5.304 14.8H14.968ZM34.4693 9.552C34.4693 9.82933 34.4479 10.224 34.4053 10.736H20.9973C21.2319 11.9947 21.8399 12.9973 22.8213 13.744C23.8239 14.4693 25.0613 14.832 26.5333 14.832C28.4106 14.832 29.9573 14.2133 31.1733 12.976L33.3173 15.44C32.5493 16.3573 31.5786 17.0507 30.4053 17.52C29.2319 17.9893 27.9093 18.224 26.4373 18.224C24.5599 18.224 22.9066 17.8507 21.4773 17.104C20.0479 16.3573 18.9386 15.3227 18.1493 14C17.3813 12.656 16.9973 11.1413 16.9973 9.456C16.9973 7.792 17.3706 6.29867 18.1173 4.976C18.8853 3.632 19.9413 2.58667 21.2853 1.84C22.6293 1.09333 24.1439 0.719999 25.8293 0.719999C27.4933 0.719999 28.9759 1.09333 30.2773 1.84C31.5999 2.56533 32.6239 3.6 33.3493 4.944C34.0959 6.26667 34.4693 7.80267 34.4693 9.552ZM25.8293 3.92C24.5493 3.92 23.4613 4.304 22.5653 5.072C21.6906 5.81867 21.1573 6.82133 20.9653 8.08H30.6613C30.4906 6.84267 29.9679 5.84 29.0933 5.072C28.2186 4.304 27.1306 3.92 25.8293 3.92ZM48.0075 0.719999C50.1622 0.719999 51.8902 1.34933 53.1915 2.608C54.4928 3.86667 55.1435 5.73333 55.1435 8.208V18H51.1435V8.72C51.1435 7.22667 50.7915 6.10667 50.0875 5.36C49.3835 4.592 48.3808 4.208 47.0795 4.208C45.6075 4.208 44.4448 4.656 43.5915 5.552C42.7382 6.42667 42.3115 7.696 42.3115 9.36V18H38.3115V0.911999H42.1195V3.12C42.7808 2.33067 43.6128 1.73333 44.6155 1.328C45.6182 0.922666 46.7488 0.719999 48.0075 0.719999ZM77.078 0.911999V24.208H73.078V15.92C71.734 17.456 69.91 18.224 67.606 18.224C65.942 18.224 64.4487 17.8613 63.126 17.136C61.8247 16.4107 60.8007 15.3867 60.054 14.064C59.3287 12.7413 58.966 11.2053 58.966 9.456C58.966 7.728 59.3393 6.20267 60.086 4.88C60.8327 3.55733 61.8567 2.53333 63.158 1.808C64.4593 1.08267 65.942 0.719999 67.606 0.719999C68.7793 0.719999 69.846 0.922666 70.806 1.328C71.7873 1.73333 72.6087 2.34133 73.27 3.152V0.911999H77.078ZM68.054 14.8C69.526 14.8 70.742 14.3093 71.702 13.328C72.662 12.3467 73.142 11.056 73.142 9.456C73.142 7.856 72.662 6.56533 71.702 5.584C70.742 4.60267 69.526 4.112 68.054 4.112C66.582 4.112 65.366 4.60267 64.406 5.584C63.4673 6.56533 62.998 7.856 62.998 9.456C62.998 11.056 63.4673 12.3467 64.406 13.328C65.366 14.3093 66.582 14.8 68.054 14.8ZM89.9915 18.224C88.2635 18.224 86.7062 17.8507 85.3195 17.104C83.9328 16.3573 82.8448 15.3227 82.0555 14C81.2875 12.656 80.9035 11.1413 80.9035 9.456C80.9035 7.77067 81.2875 6.26667 82.0555 4.944C82.8448 3.62133 83.9328 2.58667 85.3195 1.84C86.7062 1.09333 88.2635 0.719999 89.9915 0.719999C91.7408 0.719999 93.3088 1.09333 94.6955 1.84C96.0822 2.58667 97.1595 3.62133 97.9275 4.944C98.7168 6.26667 99.1115 7.77067 99.1115 9.456C99.1115 11.1413 98.7168 12.656 97.9275 14C97.1595 15.3227 96.0822 16.3573 94.6955 17.104C93.3088 17.8507 91.7408 18.224 89.9915 18.224ZM89.9915 14.8C91.4635 14.8 92.6795 14.3093 93.6395 13.328C94.5995 12.3467 95.0795 11.056 95.0795 9.456C95.0795 7.856 94.5995 6.56533 93.6395 5.584C92.6795 4.60267 91.4635 4.112 89.9915 4.112C88.5195 4.112 87.3035 4.60267 86.3435 5.584C85.4048 6.56533 84.9355 7.856 84.9355 9.456C84.9355 11.056 85.4048 12.3467 86.3435 13.328C87.3035 14.3093 88.5195 14.8 89.9915 14.8ZM106.745 3.408C107.897 1.616 109.923 0.719999 112.825 0.719999V4.528C112.483 4.464 112.174 4.432 111.897 4.432C110.339 4.432 109.123 4.89067 108.249 5.808C107.374 6.704 106.937 8.00533 106.937 9.712V18H102.937V0.911999H106.745V3.408ZM132.126 9.552C132.126 9.82933 132.104 10.224 132.062 10.736H118.654C118.888 11.9947 119.496 12.9973 120.478 13.744C121.48 14.4693 122.718 14.832 124.19 14.832C126.067 14.832 127.614 14.2133 128.83 12.976L130.974 15.44C130.206 16.3573 129.235 17.0507 128.062 17.52C126.888 17.9893 125.566 18.224 124.094 18.224C122.216 18.224 120.563 17.8507 119.134 17.104C117.704 16.3573 116.595 15.3227 115.806 14C115.038 12.656 114.654 11.1413 114.654 9.456C114.654 7.792 115.027 6.29867 115.774 4.976C116.542 3.632 117.598 2.58667 118.942 1.84C120.286 1.09333 121.8 0.719999 123.486 0.719999C125.15 0.719999 126.632 1.09333 127.934 1.84C129.256 2.56533 130.28 3.6 131.006 4.944C131.752 6.26667 132.126 7.80267 132.126 9.552ZM123.486 3.92C122.206 3.92 121.118 4.304 120.222 5.072C119.347 5.81867 118.814 6.82133 118.622 8.08H128.318C128.147 6.84267 127.624 5.84 126.75 5.072C125.875 4.304 124.787 3.92 123.486 3.92Z" fill="black"/>
</svg>
